# xmcd
#
# Track frame offsets:
#	182
#	20970
#	37927
#	57072
#	76572
#	97455
#	115445
#	133460
#	154510
#	175030
#
# Disc length: 2554 seconds
#
# Revision: 9
# Processed by: cddbd v1.5.2PL0 Copyright (c) Steve Scherf et al.
# Submitted via: EasyCDDAExtractor 15.3.0.1
#
DISCID=8009f80a
DTITLE=Laura Pausini
DYEAR=1994
DGENRE=Latin
TTITLE0=Gente
TTITLE1=El No Esta Por Ti
TTITLE2=Amores Extraños
TTITLE3=Las Chicas
TTITLE4=El Valor Que No Se Ve
TTITLE5=La Soledad
TTITLE6=Por Que No Volveran
TTITLE7=Se Fue
TTITLE8=Por Que No
TTITLE9=Carta
EXTD=YEAR: 1994
EXTT0=
EXTT1=
EXTT2=
EXTT3=
EXTT4=
EXTT5=
EXTT6=
EXTT7=
EXTT8=
EXTT9=
PLAYORDER=
